<?xml version="1.0" encoding="UTF-8"?>
<svg id="Layer_2" data-name="Layer 2" xmlns="http://www.w3.org/2000/svg" viewBox="0 0 266.25 261.12">
  <g id="Layer_1-2" data-name="Layer 1">
    <g>
      <path d="M258.25,40.81c-.62,0-15.33.13-29.79,11.13-1.78,1.35-3.44,2.8-5.01,4.31-.69-1.92-1.54-3.79-2.58-5.59-4.67-8.09-12.31-13.76-21.16-15.93-2.17-8.85-7.84-16.48-15.93-21.16-8.09-4.67-17.54-5.76-26.29-3.22-6.31-6.58-15.03-10.36-24.38-10.36s-18.07,3.78-24.38,10.36c-8.75-2.54-18.2-1.45-26.29,3.22-8.09,4.67-13.76,12.31-15.93,21.16-8.85,2.17-16.49,7.84-21.16,15.93-1.04,1.8-1.9,3.67-2.58,5.59-1.57-1.51-3.23-2.95-5.01-4.31-14.45-11-29.17-11.13-29.79-11.13H0v8c0,43.38,26.91,64.6,49.08,81.49l-.49,17.67v.22c0,24.45,11.99,48.35,32.24,64.66,2.15,26.98,24.77,48.28,52.3,48.28s50.15-21.3,52.3-48.28c20.25-16.3,32.24-40.2,32.24-64.66l-.49-17.88c22.17-16.89,49.08-38.11,49.08-81.49v-8h-8ZM16.57,58.52c10.95,3.67,28.79,15.22,32.58,51.56-15.67-12.67-29.63-27.35-32.58-51.56ZM64.59,148.29l.15-5.57c9.53,8.35,15.91,16.73,15.91,28.09v19.6c-10.22-12.11-16.03-27.01-16.06-42.12ZM169.61,170.81v37.83c0,20.12-16.36,36.48-36.48,36.48s-36.48-16.36-36.48-36.48v-37.83c0-21.73-14.79-35.38-30.78-47.8-.03-2.87-.14-5.85-.34-8.91l.35-12.55v-.22c0-3.86.36-7.83,1.07-11.78l.86-4.83-3.91-2.96c-3.18-2.41-5.41-5.71-6.44-9.56-1.23-4.6-.6-9.41,1.78-13.54,3.06-5.31,8.55-8.64,14.68-8.9l7.33-.31.31-7.33c.26-6.13,3.59-11.62,8.9-14.68,5.31-3.06,11.73-3.2,17.16-.37l6.51,3.39,3.94-6.2c3.29-5.17,8.92-8.26,15.05-8.26s11.76,3.09,15.05,8.27l3.94,6.2,6.51-3.4c5.44-2.83,11.85-2.7,17.16.37,5.31,3.07,8.64,8.55,8.9,14.68l.31,7.34,7.34.31c6.13.26,11.62,3.59,14.68,8.9,2.38,4.13,3.02,8.93,1.78,13.54-1.03,3.85-3.26,7.16-6.44,9.56l-3.91,2.96.86,4.83c.71,3.95,1.06,7.91,1.06,11.78l.35,12.75c-.21,3.06-.31,6.05-.34,8.93-15.98,12.43-30.78,26.08-30.78,47.8ZM185.61,190.41v-19.6c0-11.36,6.38-19.74,15.91-28.09l.15,5.57c-.03,15.1-5.84,30.01-16.06,42.12ZM217.1,110.08c3.8-36.37,21.66-47.91,32.58-51.57-2.95,24.22-16.91,38.9-32.58,51.57Z"/>
      <path d="M133.13,194.66c-7.72,0-13.98,6.26-13.98,13.98s6.26,13.98,13.98,13.98,13.98-6.26,13.98-13.98-6.26-13.98-13.98-13.98Z"/>
    </g>
  </g>
</svg>