<?xml version="1.0" encoding="UTF-8"?>
<svg id="Layer_2" data-name="Layer 2" xmlns="http://www.w3.org/2000/svg" viewBox="0 0 339.3 213.14">
  <g id="Layer_1-2" data-name="Layer 1">
    <g>
      <circle cx="169.65" cy="106.57" r="34.79" transform="translate(-25.67 151.17) rotate(-45)"/>
      <path d="M337.46,102.94c-15.51-30.48-39.06-56.2-68.09-74.37C239.52,9.88,205.04,0,169.65,0s-69.87,9.88-99.72,28.57C40.9,46.74,17.36,72.46,1.85,102.94l-1.85,3.63,1.85,3.63c15.51,30.48,39.06,56.2,68.09,74.37,29.85,18.69,64.33,28.57,99.72,28.57s69.87-9.88,99.72-28.57c29.03-18.17,52.57-43.89,68.09-74.37l1.85-3.63-1.85-3.63ZM260.88,171.01c-27.3,17.09-58.85,26.13-91.23,26.13s-63.93-9.04-91.23-26.13c-25.41-15.91-46.23-38.13-60.41-64.44,14.19-26.31,35-48.53,60.41-64.44,27.3-17.09,58.85-26.13,91.23-26.13s63.93,9.04,91.23,26.13c25.41,15.91,46.23,38.13,60.41,64.44-14.19,26.31-35,48.53-60.41,64.44Z"/>
      <path d="M169.65,36.95c-38.39,0-69.62,31.23-69.62,69.62s31.23,69.62,69.62,69.62,69.62-31.23,69.62-69.62-31.23-69.62-69.62-69.62ZM169.65,160.19c-29.61,0-53.62-24.01-53.62-53.62s24.01-53.62,53.62-53.62,53.62,24.01,53.62,53.62-24.01,53.62-53.62,53.62Z"/>
    </g>
  </g>
</svg>