<?xml version="1.0" encoding="UTF-8"?>
<svg id="Layer_2" data-name="Layer 2" xmlns="http://www.w3.org/2000/svg" viewBox="0 0 371 232.58">
  <g id="Layer_1-2" data-name="Layer 1">
    <g>
      <circle cx="185.5" cy="116.29" r="38.22" transform="translate(7.07 243.17) rotate(-67.5)"/>
      <path d="M369.15,112.66c-16.98-33.36-42.75-61.51-74.52-81.4C261.97,10.81,224.23,0,185.5,0s-76.47,10.81-109.14,31.27C44.59,51.16,18.82,79.3,1.85,112.66l-1.85,3.63,1.85,3.63c16.98,33.36,42.75,61.51,74.52,81.4,32.67,20.45,70.41,31.27,109.14,31.27s76.47-10.81,109.14-31.27c31.77-19.89,57.54-48.04,74.52-81.4l1.85-3.63-1.85-3.63ZM286.15,187.76c-30.12,18.86-64.92,28.83-100.65,28.83s-70.52-9.97-100.65-28.83c-28.15-17.63-51.2-42.28-66.85-71.46,15.65-29.19,38.7-53.84,66.85-71.47,30.12-18.86,64.92-28.83,100.65-28.83s70.52,9.97,100.65,28.83c28.15,17.63,51.2,42.28,66.85,71.47-15.65,29.19-38.7,53.84-66.85,71.46Z"/>
      <path d="M185.5,41.39c-41.3,0-74.91,33.6-74.91,74.91s33.6,74.91,74.91,74.91,74.91-33.6,74.91-74.91-33.6-74.91-74.91-74.91ZM185.5,175.2c-32.53,0-58.91-26.37-58.91-58.91s26.37-58.91,58.91-58.91,58.91,26.37,58.91,58.91-26.37,58.91-58.91,58.91Z"/>
    </g>
  </g>
</svg>