<?xml version="1.0" encoding="UTF-8"?>
<svg id="Layer_2" data-name="Layer 2" xmlns="http://www.w3.org/2000/svg" viewBox="0 0 266 266">
  <g id="Layer_1-2" data-name="Layer 1">
    <g>
      <path d="M133,0C59.66,0,0,59.66,0,133s59.66,133,133,133,133-59.66,133-133S206.34,0,133,0ZM133,250c-64.51,0-117-52.49-117-117S68.49,16,133,16s117,52.49,117,117-52.49,117-117,117Z"/>
      <path d="M133,40.84c-50.82,0-92.16,41.34-92.16,92.16s41.34,92.16,92.16,92.16,92.16-41.34,92.16-92.16-41.34-92.16-92.16-92.16ZM133,209.16c-42,0-76.16-34.17-76.16-76.16s34.17-76.16,76.16-76.16,76.16,34.17,76.16,76.16-34.17,76.16-76.16,76.16Z"/>
    </g>
  </g>
</svg>